<?xml version="1.0" standalone="no"?>
<!DOCTYPE svg PUBLIC "-//W3C//DTD SVG 20010904//EN"
 "http://www.w3.org/TR/2001/REC-SVG-20010904/DTD/svg10.dtd">
<svg version="1.0" xmlns="http://www.w3.org/2000/svg"
 width="700.000000pt" height="700.000000pt" viewBox="0 0 700.000000 700.000000"
 preserveAspectRatio="xMidYMid meet">
<metadata>
Created by potrace 1.14, written by Peter Selinger 2001-2017
</metadata>
<g transform="translate(0.000000,700.000000) scale(0.100000,-0.100000)"
fill="#000000" stroke="none">
<path d="M3017 6834 c-1 -1 -33 -4 -72 -8 -311 -28 -736 -155 -907 -270 -102
-69 -135 -108 -145 -170 -6 -38 -69 -170 -141 -296 -52 -91 -170 -279 -182
-290 -3 -3 -25 -34 -49 -70 -83 -122 -196 -264 -275 -347 -176 -186 -330 -264
-546 -278 -72 -4 -203 -16 -220 -20 -93 -20 -161 -54 -179 -88 -34 -64 59
-173 194 -230 150 -62 297 -68 398 -17 84 44 113 12 104 -112 -16 -209 -155
-335 -423 -387 -124 -24 -227 -85 -254 -151 -17 -40 -8 -144 15 -196 39 -83
126 -201 264 -357 47 -53 100 -139 107 -172 11 -62 -22 -100 -174 -200 -73
-47 -101 -80 -85 -96 4 -4 44 -11 88 -14 173 -12 332 -87 500 -236 117 -103
129 -113 166 -141 33 -24 56 -32 86 -29 15 1 21 39 27 157 8 174 63 216 197
149 77 -40 86 -31 45 47 -39 74 -53 159 -51 308 3 137 4 153 31 320 68 416
198 666 295 569 23 -23 21 -68 -6 -119 -23 -44 -18 -65 19 -98 41 -36 99 -50
226 -57 178 -9 254 -40 252 -102 -2 -71 -72 -150 -261 -292 -110 -83 -151
-122 -151 -143 0 -22 72 -35 242 -43 150 -8 221 -21 293 -55 95 -45 117 -102
69 -176 -40 -62 -134 -118 -322 -193 -224 -90 -277 -122 -219 -136 48 -12 197
-11 258 1 287 58 680 465 800 829 19 55 24 92 24 175 0 98 -2 110 -32 170 -41
83 -89 139 -169 196 -94 67 -255 138 -356 158 -13 2 -43 9 -68 14 -44 10 -81
16 -170 27 -25 3 -112 7 -194 10 -83 2 -161 7 -175 9 -15 3 -42 8 -63 10 -49
7 -141 43 -165 64 -82 71 -52 156 87 246 141 92 266 134 450 152 52 4 375 4
450 -1 134 -9 196 -14 230 -19 19 -3 62 -8 95 -11 87 -9 286 -39 400 -61 147
-27 327 -76 441 -119 168 -63 237 -134 213 -219 -31 -113 -192 -185 -352 -157
-115 21 -164 18 -192 -10 -44 -44 -55 -113 -50 -334 3 -110 7 -216 9 -235 2
-19 7 -80 10 -135 9 -139 19 -262 31 -395 2 -25 7 -72 10 -105 3 -33 8 -71 10
-85 3 -14 7 -50 11 -80 9 -86 33 -192 52 -230 23 -44 19 -90 -13 -187 -29 -84
-112 -242 -153 -289 -62 -71 -131 -76 -241 -20 -36 18 -102 52 -146 75 -44 23
-104 47 -134 55 -70 18 -228 14 -306 -8 -174 -49 -349 -176 -469 -341 -115
-159 -145 -234 -252 -627 -32 -120 -61 -214 -65 -210 -3 4 -29 66 -58 137 -51
126 -64 157 -96 229 -8 19 -15 37 -15 41 0 4 -29 66 -65 139 -41 83 -80 148
-106 175 l-42 43 -21 -21 c-53 -54 -4 -427 100 -761 42 -136 48 -151 120 -297
188 -384 493 -591 984 -668 177 -27 682 -28 850 -1 14 3 59 10 100 16 375 58
723 226 947 456 145 148 238 295 335 529 40 96 71 146 120 195 82 80 189 127
312 135 155 11 208 18 326 46 198 46 378 113 576 214 286 146 350 209 378 377
15 91 11 298 -9 468 -4 33 -22 199 -30 285 -2 22 -7 74 -10 115 -4 41 -8 86
-10 100 -2 14 -7 59 -10 100 -7 97 -15 186 -30 340 -22 222 -22 536 -1 692 8
55 37 251 42 278 9 56 33 208 40 250 3 25 8 52 9 61 2 8 6 55 11 105 28 336
-18 430 -362 750 -60 56 -125 115 -144 130 -19 16 -37 31 -40 35 -33 39 -411
323 -512 384 -9 5 -54 33 -100 62 -45 28 -132 76 -193 106 -233 117 -382 141
-420 68 -17 -35 -14 -72 15 -148 38 -100 41 -113 24 -120 -22 -8 -63 13 -225
118 -218 141 -359 200 -493 205 -44 2 -88 -2 -99 -8 -33 -17 -117 7 -164 47
-22 19 -52 58 -66 87 -74 159 -250 228 -590 232 -81 2 -148 2 -150 0z m3072
-2138 c98 -51 163 -167 155 -272 -13 -166 -191 -277 -444 -276 -153 1 -277 52
-337 141 -52 77 -72 232 -37 296 57 106 175 71 272 -80 103 -159 125 -154 135
32 7 139 30 183 102 196 28 5 113 -16 154 -37z m-1666 -840 c53 -16 200 -99
228 -129 14 -15 16 -24 8 -34 -33 -39 -222 -58 -309 -32 -61 19 -120 78 -120
122 0 40 8 52 45 71 37 20 88 20 148 2z m1502 -380 c29 -19 55 -71 55 -108 0
-57 -108 -165 -210 -211 -25 -11 -71 -22 -102 -23 -49 -3 -62 1 -88 22 -55 46
-37 128 49 226 91 103 220 144 296 94z m422 -68 c0 -7 3 -35 7 -63 4 -27 9
-63 11 -80 3 -16 9 -66 15 -110 5 -44 12 -98 15 -120 7 -50 7 -221 0 -255 -2
-14 -7 -38 -11 -55 -3 -16 -17 -42 -31 -57 -21 -22 -31 -26 -71 -22 -63 5
-170 61 -201 105 -20 30 -22 42 -18 99 9 99 41 173 185 415 101 171 98 168 99
143z m-1802 -702 c280 -15 409 -85 409 -224 1 -75 -6 -112 -38 -205 -35 -103
-77 -185 -143 -280 -154 -221 -207 -248 -343 -174 -136 73 -445 337 -576 492
-94 111 -111 165 -54 165 73 0 112 52 86 115 -12 28 -12 36 0 53 40 58 269 78
659 58z m-1539 -993 c82 -37 130 -92 118 -138 -14 -57 -130 -148 -289 -228
-123 -61 -144 -70 -265 -111 -165 -55 -296 -65 -336 -24 -62 63 40 286 178
390 93 70 225 122 342 134 33 4 62 7 63 8 9 8 157 -17 189 -31z"/>
</g>
</svg>
