<?xml version="1.0" standalone="no"?>
<!DOCTYPE svg PUBLIC "-//W3C//DTD SVG 20010904//EN"
 "http://www.w3.org/TR/2001/REC-SVG-20010904/DTD/svg10.dtd">
<svg version="1.0" xmlns="http://www.w3.org/2000/svg"
 width="329.000000pt" height="329.000000pt" viewBox="0 0 329.000000 329.000000"
 preserveAspectRatio="xMidYMid meet">
<metadata>
Created by potrace 1.14, written by Peter Selinger 2001-2017
</metadata>
<g transform="translate(0.000000,329.000000) scale(0.100000,-0.100000)"
fill="#000000" stroke="none">
<path d="M1326 3253 c-5 -5 -154 -33 -176 -33 -14 0 -37 -6 -52 -14 -15 -8
-35 -12 -45 -10 -10 3 -32 0 -48 -7 -17 -7 -32 -13 -35 -13 -28 -5 -115 -119
-105 -137 4 -5 1 -9 -5 -9 -7 0 -10 -7 -7 -15 4 -8 2 -17 -4 -21 -5 -3 -7 -14
-4 -24 4 -12 -3 -23 -21 -34 -16 -11 -23 -23 -20 -32 9 -24 -12 -54 -39 -54
-31 0 -39 -14 -19 -34 14 -15 14 -16 0 -16 -9 0 -16 -7 -16 -15 0 -9 -7 -18
-15 -21 -8 -4 -15 -10 -15 -15 0 -15 -34 -49 -50 -49 -12 0 -13 -2 -1 -9 11
-7 10 -12 -8 -22 -11 -8 -21 -19 -21 -26 0 -17 -47 -46 -60 -38 -6 4 -11 1 -9
-6 3 -27 -1 -40 -11 -34 -5 3 -10 11 -10 16 0 6 5 7 12 3 7 -4 8 -3 4 4 -10
16 -36 15 -36 -1 0 -7 5 -18 12 -25 9 -9 6 -14 -13 -20 -13 -5 -30 -7 -38 -4
-11 4 -13 1 -8 -13 6 -14 5 -16 -6 -7 -8 7 -18 8 -22 4 -5 -4 -6 0 -3 8 4 11
0 16 -13 16 -11 0 -18 -5 -15 -11 2 -7 -7 -12 -23 -12 -79 -2 -150 -39 -108
-57 6 -3 0 -3 -15 -1 -28 4 -40 -16 -18 -30 6 -3 10 -2 10 2 0 10 2 10 125 12
158 3 160 2 150 -8 -6 -6 -26 -11 -45 -12 -19 -2 -41 -7 -47 -12 -8 -6 -13 -6
-13 1 0 8 -130 10 -253 4 l-28 -2 3 -509 2 -510 34 -6 c18 -3 69 -5 113 -4 88
2 102 -4 120 -58 9 -29 9 -37 -2 -44 -8 -5 -10 -9 -5 -9 5 0 1 -9 -9 -20 -10
-11 -14 -20 -9 -20 14 0 31 13 35 27 2 7 4 -43 5 -112 0 -69 -2 -125 -5 -125
-8 0 -41 -54 -41 -67 0 -4 9 7 20 24 11 18 22 33 25 33 4 0 -3 -27 -14 -45 -3
-5 -7 -40 -9 -76 -2 -51 1 -70 13 -83 26 -25 35 -19 35 25 0 26 4 38 11 34 6
-4 8 -13 5 -21 -5 -14 -2 -16 32 -17 9 -1 19 -5 22 -9 3 -4 16 -5 28 -1 15 4
22 13 22 32 1 24 2 23 22 -14 14 -26 20 -56 19 -87 -1 -25 6 -67 14 -92 9 -26
15 -52 14 -59 -1 -6 1 -20 6 -31 5 -11 3 -21 -5 -26 -12 -8 -15 -39 -7 -85 2
-11 13 -21 25 -23 24 -4 29 -17 10 -28 -12 -8 27 -29 48 -25 12 1 37 -46 30
-58 -3 -4 0 -26 6 -48 7 -28 14 -40 23 -36 10 3 12 -2 8 -18 -5 -18 -3 -21 11
-16 10 4 15 3 11 -3 -10 -17 20 -41 34 -27 16 16 14 1 -5 -36 l-17 -32 22 19
c21 19 22 19 61 -3 22 -12 44 -19 50 -16 6 3 10 -4 10 -16 0 -22 0 -22 15 -3
14 19 14 19 15 -3 0 -27 16 -38 24 -17 6 15 8 15 27 -2 17 -15 23 -16 40 -6
16 10 20 10 25 -3 4 -9 18 -15 35 -15 16 0 29 -3 29 -8 0 -11 101 -33 114 -25
17 11 46 14 46 4 0 -13 39 -21 46 -9 3 5 12 7 20 4 7 -3 17 1 21 8 13 21 52
26 81 10 24 -12 28 -12 39 2 10 14 12 14 22 -3 10 -17 10 -17 11 0 0 20 16 23
23 5 4 -10 8 -9 17 2 9 11 13 12 17 2 2 -6 10 -9 16 -5 25 15 80 14 98 -3 11
-10 19 -12 19 -6 0 18 55 43 68 30 7 -7 12 -4 17 11 3 12 11 19 16 16 17 -11
49 -14 49 -4 0 5 5 9 10 9 6 0 20 9 32 20 17 16 19 22 8 35 -11 13 -9 15 10
15 34 0 100 51 107 83 3 16 12 31 19 34 8 3 14 9 14 14 0 5 12 23 28 40 51 60
53 61 68 48 11 -9 14 -8 14 5 0 9 5 16 11 16 22 0 41 30 35 55 -4 14 -3 25 2
25 4 0 9 14 10 32 3 32 31 68 52 68 8 0 9 -11 5 -30 -4 -18 -2 -30 3 -30 6 0
18 -3 28 -7 13 -5 15 -3 9 7 -6 9 -4 11 4 6 7 -5 10 -14 8 -20 -3 -7 3 -30 13
-52 10 -21 19 -33 19 -26 1 6 8 12 16 12 8 0 15 7 15 17 0 14 -2 14 -20 -2
-18 -16 -20 -16 -20 -2 0 10 5 17 11 17 6 0 8 7 5 16 -5 14 -4 15 9 4 12 -10
15 -10 15 1 0 11 2 11 10 -1 8 -12 10 -10 10 9 0 23 1 24 13 6 16 -21 37 -12
37 16 0 35 21 20 46 -33 l24 -53 -6 44 c-4 28 -1 52 7 68 l13 24 18 -23 17
-23 -6 23 c-8 33 17 20 45 -24 13 -20 26 -33 29 -30 3 3 -2 12 -11 21 -20 21
-21 32 -1 15 13 -11 14 -8 8 20 -5 25 -3 32 8 28 9 -3 16 -25 19 -59 3 -30 13
-68 22 -85 10 -18 24 -51 32 -74 13 -38 13 -47 -5 -97 -18 -54 -18 -79 2 -67
6 3 8 13 4 22 -3 8 -1 30 6 49 9 28 13 32 25 22 26 -21 37 -50 25 -62 -6 -6
-11 -16 -11 -21 0 -6 5 -3 11 8 9 15 13 16 20 5 7 -12 9 -12 9 0 0 8 -11 29
-25 47 -29 37 -49 84 -36 84 14 0 33 -28 27 -38 -3 -6 2 -16 12 -23 15 -12 16
-12 7 1 -6 10 -4 9 6 -2 9 -9 37 -22 63 -29 25 -6 43 -15 41 -19 -3 -5 -1 -11
5 -15 5 -3 10 -3 10 2 0 4 28 9 62 11 34 1 66 6 69 10 9 9 -12 37 -28 38 -7 1
-25 2 -39 3 -35 2 -20 21 16 21 21 0 28 4 24 14 -4 11 -12 12 -35 4 -43 -15
-110 -2 -132 25 -13 16 -16 17 -11 4 6 -16 4 -16 -20 -6 -38 18 -44 55 -22
124 3 11 -3 2 -14 -20 -23 -47 -27 -21 -5 33 12 28 18 33 25 22 10 -16 12 -12
25 45 6 29 7 28 26 -25 10 -30 19 -64 19 -77 0 -19 36 -93 45 -93 2 0 -5 19
-15 43 -11 23 -20 54 -20 68 0 14 -5 41 -11 58 -9 24 -9 35 0 44 8 8 11 6 12
-9 0 -16 1 -16 10 4 5 13 13 20 19 17 5 -3 10 3 10 14 0 34 19 33 29 -1 9 -33
9 -33 10 -5 1 16 5 26 10 23 4 -3 11 -49 15 -103 7 -97 36 -193 58 -193 6 0 5
7 -2 15 -7 9 -10 18 -6 22 3 3 0 13 -8 22 -20 23 -28 79 -14 104 8 16 8 22 -1
25 -14 5 -15 22 -1 22 6 0 14 -10 19 -22 11 -30 18 35 30 282 12 220 10 1270
-2 1288 -5 7 -4 12 3 12 8 0 11 54 8 194 l-3 194 -50 53 c-27 30 -54 53 -58
51 -5 -1 -26 13 -48 33 -21 19 -43 35 -47 35 -4 0 -38 30 -75 66 -43 41 -73
64 -82 60 -10 -3 -23 8 -39 32 -52 83 -265 236 -344 248 -26 3 -51 10 -57 13
-5 4 -26 8 -45 10 -19 2 -43 9 -54 17 -11 8 -36 14 -55 14 -18 0 -39 6 -45 13
-8 10 -29 12 -81 7 -62 -5 -67 -7 -45 -17 14 -6 32 -18 39 -27 7 -9 19 -16 25
-16 6 0 17 -9 24 -21 10 -15 16 -18 26 -10 15 13 27 4 20 -14 -3 -7 0 -24 7
-37 13 -25 18 -29 -84 66 -21 20 -43 36 -48 36 -6 0 -30 14 -55 31 -24 16 -72
39 -107 50 -34 11 -69 22 -77 25 -8 3 -16 5 -17 5 -2 -1 -27 8 -55 18 -76 28
-127 35 -261 35 -65 1 -120 0 -121 -1z m-556 -417 c0 -3 -4 -8 -10 -11 -5 -3
-10 -1 -10 4 0 6 5 11 10 11 6 0 10 -2 10 -4z m-329 -1652 l-9 -39 -1 41 c-1
22 2 44 6 48 12 12 14 -8 4 -50z m108 -34 c-5 -35 -7 -71 -4 -78 2 -7 0 -10
-5 -7 -16 10 -12 -11 5 -25 17 -14 20 -65 6 -75 -6 -3 -12 12 -14 32 -3 26 -4
24 -2 -9 1 -32 -2 -49 -12 -52 -11 -5 -13 4 -9 42 3 26 8 77 11 114 5 59 23
134 30 126 1 -2 -1 -32 -6 -68z m24 -61 c-6 -6 -7 3 -4 23 4 28 6 29 9 9 2
-13 0 -27 -5 -32z m-126 19 c-3 -8 -6 -5 -6 6 -1 11 2 17 5 13 3 -3 4 -12 1
-19z m28 -165 c-4 -30 -9 -52 -12 -49 -3 2 -2 33 2 68 5 35 10 57 13 50 2 -7
1 -38 -3 -69z m65 -45 c0 -19 -2 -20 -10 -8 -13 19 -13 30 0 30 6 0 10 -10 10
-22z m2287 -304 c-3 -3 -12 -4 -19 -1 -8 3 -5 6 6 6 11 1 17 -2 13 -5z m63 2
c0 -3 -4 -8 -10 -11 -5 -3 -10 -1 -10 4 0 6 5 11 10 11 6 0 10 -2 10 -4z m200
-27 c0 -16 -4 -28 -9 -25 -8 5 -3 56 5 56 2 0 4 -14 4 -31z m-279 -50 c-4 -19
-6 -50 -3 -69 3 -24 1 -31 -8 -25 -6 4 -10 16 -7 26 3 11 1 19 -3 19 -12 0 1
73 14 82 15 10 16 7 7 -33z m69 28 c0 -8 -7 -14 -15 -14 -11 0 -12 4 -4 14 6
7 13 13 15 13 2 0 4 -6 4 -13z m-110 -29 c0 -5 -4 -8 -10 -8 -5 0 -10 10 -10
23 0 18 2 19 10 7 5 -8 10 -18 10 -22z"/>
<path d="M530 2699 c0 -8 7 -24 15 -35 18 -24 19 -7 0 26 -9 16 -14 19 -15 9z"/>
<path d="M480 2583 c0 -6 -8 -13 -17 -16 -13 -3 -11 -6 10 -12 35 -9 46 0 24
22 -10 10 -17 12 -17 6z"/>
<path d="M200 2450 c0 -5 5 -10 11 -10 5 0 7 5 4 10 -3 6 -8 10 -11 10 -2 0
-4 -4 -4 -10z"/>
<path d="M391 942 c-1 -7 -10 -22 -21 -34 -10 -12 -16 -26 -13 -32 4 -6 8 -5
11 4 3 8 11 23 19 32 8 9 13 23 10 30 -4 10 -6 10 -6 0z"/>
<path d="M272 849 c2 -7 10 -15 17 -17 8 -3 12 1 9 9 -2 7 -10 15 -17 17 -8 3
-12 -1 -9 -9z"/>
<path d="M371 844 c0 -11 3 -14 6 -6 3 7 2 16 -1 19 -3 4 -6 -2 -5 -13z"/>
<path d="M426 775 c4 -8 8 -15 10 -15 2 0 4 7 4 15 0 8 -4 15 -10 15 -5 0 -7
-7 -4 -15z"/>
<path d="M2460 456 c0 -2 7 -7 16 -10 8 -3 12 -2 9 4 -6 10 -25 14 -25 6z"/>
<path d="M2564 421 c4 -6 -2 -20 -13 -32 -11 -12 -18 -27 -14 -32 3 -6 1 -7
-5 -3 -20 12 -35 -44 -23 -83 5 -19 7 -39 4 -44 -4 -6 -7 -22 -8 -37 -1 -21 3
-26 22 -26 13 0 23 5 23 11 0 5 7 2 14 -8 19 -25 86 -14 86 14 0 25 27 24 35
-1 3 -11 10 -20 15 -20 11 0 0 32 -14 42 -6 4 -5 13 5 25 12 16 12 17 -1 7 -8
-6 -23 -14 -33 -17 -17 -6 -17 -6 0 18 10 13 24 22 31 20 8 -3 10 0 6 7 -4 7
-3 8 4 4 7 -4 12 -22 12 -39 0 -31 15 -66 23 -57 6 7 17 100 12 100 -2 0 -9
-15 -14 -32 l-9 -33 -1 28 c-1 16 4 38 10 49 17 31 -6 49 -27 20 -12 -17 -85
-62 -101 -62 -11 0 1 25 20 40 14 12 17 18 7 17 -25 -4 -41 -18 -51 -45 l-11
-27 -14 28 c-23 42 -3 147 28 147 6 0 4 -10 -6 -25 -9 -13 -16 -30 -16 -37 1
-13 39 50 40 64 0 4 -10 12 -21 19 -15 7 -19 8 -15 0z m-37 -103 c-3 -8 -6 -5
-6 6 -1 11 2 17 5 13 3 -3 4 -12 1 -19z"/>
<path d="M2431 370 c0 -8 4 -22 9 -30 12 -18 12 -2 0 25 -6 13 -9 15 -9 5z"/>
<path d="M2461 283 c-2 -22 11 -42 25 -36 8 3 14 9 14 14 0 4 -6 6 -14 3 -8
-3 -16 2 -19 13 -3 10 -5 13 -6 6z"/>
<path d="M2481 204 c0 -11 3 -14 6 -6 3 7 2 16 -1 19 -3 4 -6 -2 -5 -13z"/>
</g>
</svg>
